<?xml version="1.0" standalone="no"?>
<!DOCTYPE svg PUBLIC "-//W3C//DTD SVG 20010904//EN"
 "http://www.w3.org/TR/2001/REC-SVG-20010904/DTD/svg10.dtd">
<svg version="1.0" xmlns="http://www.w3.org/2000/svg"
 width="1748.000000pt" height="1748.000000pt" viewBox="0 0 1748.000000 1748.000000"
 preserveAspectRatio="xMidYMid meet">
<metadata>
Created by potrace 1.11, written by Peter Selinger 2001-2013
</metadata>
<g transform="translate(0.000000,1748.000000) scale(0.100000,-0.100000)"
fill="#000000" stroke="none">
<path d="M6190 15360 c0 -6 -83 -10 -230 -10 -147 0 -230 -4 -230 -10 0 -6
-29 -10 -66 -10 l-65 0 4 -92 c2 -51 11 -111 19 -133 15 -37 19 -40 57 -43 25
-2 41 -8 41 -16 0 -17 32 -46 51 -46 8 0 21 -9 29 -20 8 -12 26 -20 42 -20 18
0 28 -5 28 -15 0 -8 7 -15 15 -15 8 0 15 -4 15 -10 0 -5 9 -10 20 -10 11 0 20
-4 20 -10 0 -5 14 -10 30 -10 17 0 30 -4 30 -10 0 -5 7 -10 15 -10 8 0 15 -4
15 -10 0 -5 9 -10 20 -10 11 0 20 -4 20 -10 0 -5 9 -10 20 -10 11 0 20 -5 20
-11 0 -17 27 -39 49 -39 12 0 21 -4 21 -10 0 -5 9 -10 20 -10 11 0 20 -4 20
-10 0 -5 10 -10 23 -10 12 0 29 -9 37 -20 8 -11 37 -26 65 -34 27 -9 57 -24
65 -36 8 -11 21 -20 30 -20 9 0 22 -9 30 -20 8 -11 25 -20 37 -20 13 0 23 -6
23 -13 0 -13 72 -57 94 -57 6 0 18 -9 26 -20 8 -11 20 -20 28 -20 16 0 42 -24
42 -39 0 -6 11 -11 25 -11 14 0 25 -4 25 -10 0 -5 7 -10 16 -10 9 0 29 -13 44
-30 17 -18 38 -30 54 -30 14 0 26 -4 26 -10 0 -5 8 -10 18 -10 9 0 27 -16 40
-35 12 -19 30 -35 40 -35 10 0 24 -9 32 -20 8 -11 22 -20 32 -20 10 0 18 -6
18 -13 0 -16 27 -33 68 -42 18 -3 32 -11 32 -16 0 -16 48 -59 65 -59 8 0 15
-5 15 -11 0 -14 36 -46 61 -54 11 -4 19 -11 19 -16 0 -5 10 -9 23 -9 12 0 31
-11 42 -27 31 -41 72 -83 82 -83 5 0 15 -9 23 -20 8 -11 22 -20 32 -20 10 0
18 -3 18 -7 0 -8 48 -33 63 -33 12 0 37 -26 37 -39 0 -5 11 -21 25 -35 14 -14
25 -29 25 -34 0 -6 11 -13 25 -16 26 -7 105 -78 105 -96 0 -5 5 -10 11 -10 6
0 28 -18 49 -40 21 -22 43 -40 49 -40 6 0 11 -4 11 -10 0 -5 9 -10 20 -10 11
0 20 -4 20 -8 0 -11 85 -102 95 -102 10 0 35 -27 35 -39 0 -6 11 -13 25 -17
18 -4 25 -13 25 -30 0 -13 5 -24 10 -24 6 0 10 -18 10 -40 0 -33 -3 -40 -20
-40 -11 0 -20 -7 -20 -15 0 -8 -9 -15 -20 -15 -18 0 -20 -7 -20 -75 0 -60 -3
-75 -15 -75 -8 0 -15 -4 -15 -10 0 -5 -12 -10 -26 -10 -38 0 -54 -22 -54 -75
0 -56 -16 -75 -65 -75 -55 0 -65 -17 -65 -104 0 -61 -3 -76 -15 -76 -8 0 -15
-4 -15 -10 0 -5 -12 -10 -26 -10 -38 0 -54 -22 -54 -75 0 -53 -16 -75 -55 -75
-42 0 -55 -21 -55 -89 0 -34 -4 -61 -10 -61 -5 0 -10 -7 -10 -15 0 -10 -10
-15 -31 -15 -45 0 -59 -20 -59 -85 0 -67 -14 -85 -65 -85 -51 0 -65 -18 -65
-85 0 -61 -14 -85 -49 -85 -16 0 -21 -6 -21 -25 0 -14 -4 -25 -10 -25 -5 0
-10 -23 -10 -51 0 -61 -15 -79 -65 -79 -60 0 -65 -12 -65 -164 0 -84 -4 -136
-10 -136 -5 0 -10 -7 -10 -15 0 -10 -10 -15 -31 -15 -47 0 -59 -19 -59 -95 0
-78 -12 -95 -65 -95 -60 0 -65 -12 -65 -165 0 -149 -5 -165 -55 -165 -49 0
-55 -16 -55 -164 0 -84 -4 -136 -10 -136 -5 0 -10 -7 -10 -15 0 -11 -11 -15
-41 -15 -60 0 -69 -15 -69 -109 0 -47 -4 -81 -10 -81 -6 0 -10 -28 -10 -63 0
-51 -4 -65 -20 -77 -11 -8 -20 -20 -20 -27 0 -7 -7 -13 -15 -13 -13 0 -15 -22
-15 -136 0 -152 -5 -164 -64 -164 -20 0 -36 -4 -36 -10 0 -5 -7 -10 -15 -10
-13 0 -15 -34 -15 -250 0 -160 -4 -250 -10 -250 -5 0 -10 -11 -10 -25 0 -14
-4 -25 -10 -25 -5 0 -10 -13 -10 -28 0 -16 -8 -34 -20 -42 -11 -8 -20 -20 -20
-27 0 -7 -7 -13 -15 -13 -13 0 -15 -114 -15 -970 0 -640 -3 -970 -10 -970 -5
0 -10 -9 -10 -20 0 -11 5 -20 10 -20 6 0 10 -9 10 -20 0 -15 7 -20 25 -20 14
0 25 -4 25 -10 0 -5 9 -10 20 -10 18 0 20 -7 20 -80 0 -47 4 -80 10 -80 14 0
13 -187 -1 -192 -7 -2 -7 -12 0 -31 6 -16 11 -44 11 -63 0 -19 5 -34 10 -34 6
0 10 -7 10 -15 0 -11 11 -15 41 -15 61 0 69 -14 69 -119 0 -54 -4 -91 -10 -91
-5 0 -10 -9 -10 -20 0 -11 5 -20 10 -20 6 0 10 -14 10 -31 0 -30 19 -59 39
-59 6 0 11 -7 11 -15 0 -8 5 -15 10 -15 6 0 10 -18 10 -40 0 -22 5 -40 10 -40
6 0 10 -14 10 -31 0 -41 21 -59 69 -59 l41 0 0 -55 c0 -30 5 -55 10 -55 6 0
10 -9 10 -20 0 -11 -4 -20 -10 -20 -5 0 -10 -9 -10 -19 0 -11 5 -23 10 -26 6
-3 10 -17 10 -30 0 -36 20 -74 44 -81 33 -11 46 -30 46 -68 0 -20 4 -36 9 -36
5 0 12 -15 15 -34 4 -18 15 -43 25 -55 19 -22 41 -28 41 -11 0 15 29 12 46 -4
16 -16 19 -76 4 -76 -5 0 -10 -9 -10 -20 0 -11 4 -20 9 -20 6 0 13 -20 17 -45
4 -28 11 -45 20 -45 8 0 14 -8 14 -18 0 -10 9 -24 20 -32 11 -8 20 -20 20 -26
0 -6 7 -17 15 -24 8 -7 15 -21 15 -31 0 -9 7 -24 15 -33 8 -8 15 -22 15 -30 0
-9 5 -16 11 -16 14 0 39 -25 39 -39 0 -6 7 -11 15 -11 8 0 15 -6 15 -12 0 -25
35 -98 48 -98 6 0 12 -7 12 -16 0 -9 13 -28 29 -43 15 -14 31 -36 35 -48 8
-26 40 -63 55 -63 6 0 11 -7 11 -15 0 -9 14 -29 30 -45 17 -16 30 -36 30 -45
0 -18 43 -65 60 -65 5 0 10 -9 10 -20 0 -21 81 -110 100 -110 5 0 10 -9 10
-21 0 -20 112 -139 131 -139 5 0 9 -9 9 -20 0 -10 11 -30 25 -44 14 -14 25
-30 25 -36 0 -5 7 -10 15 -10 8 0 15 -4 15 -10 0 -5 5 -10 11 -10 17 0 35 -23
43 -53 3 -15 11 -27 16 -27 6 0 10 -7 10 -15 0 -8 5 -15 10 -15 15 0 12 -57
-2 -63 -7 -3 -1 -6 15 -6 20 -1 27 -6 27 -21 0 -11 7 -20 15 -20 10 0 15 -11
15 -35 0 -24 -5 -35 -15 -35 -8 0 -15 -9 -15 -20 0 -15 -7 -20 -26 -20 -40 0
-54 -22 -54 -85 0 -78 -9 -85 -114 -85 -63 0 -86 -3 -86 -13 0 -7 -9 -19 -20
-27 -14 -10 -20 -26 -20 -52 0 -21 -4 -38 -10 -38 -5 0 -10 -7 -10 -15 0 -12
-15 -15 -75 -15 -67 0 -79 -3 -100 -25 -19 -19 -25 -35 -25 -70 0 -67 -12 -75
-120 -75 -115 0 -120 -4 -120 -100 0 -49 -5 -76 -14 -86 -11 -11 -47 -14 -161
-14 -169 0 -175 -3 -175 -75 0 -60 -16 -75 -79 -75 -28 0 -51 -4 -51 -10 0 -5
-20 -10 -45 -10 l-45 0 0 -50 c0 -41 -5 -56 -25 -75 -22 -22 -32 -25 -105 -25
-64 0 -80 -3 -80 -15 0 -8 -7 -15 -15 -15 -11 0 -15 -12 -15 -50 0 -27 -4 -50
-10 -50 -5 0 -10 -7 -10 -15 0 -11 -12 -15 -45 -15 -25 0 -45 -4 -45 -10 0 -5
-16 -10 -36 -10 -51 0 -64 -18 -64 -89 0 -48 -3 -61 -15 -61 -8 0 -15 -4 -15
-10 0 -5 -18 -10 -40 -10 -22 0 -40 -4 -40 -10 0 -6 -26 -10 -59 -10 -70 0
-71 -2 -71 -108 0 -92 21 -165 62 -221 21 -27 24 -67 6 -74 -7 -3 -2 -6 12 -6
20 -1 22 -3 10 -11 -11 -7 -7 -10 18 -10 17 0 32 -4 32 -10 0 -5 20 -10 45
-10 25 0 45 5 45 10 0 6 9 10 20 10 11 0 20 5 20 10 0 6 25 10 55 10 30 0 55
5 55 10 0 6 9 10 20 10 11 0 20 5 20 10 0 6 16 10 35 10 19 0 35 5 35 10 0 6
9 10 20 10 11 0 20 7 20 15 0 9 9 15 25 15 14 0 25 5 25 10 0 6 14 10 30 10
17 0 30 5 30 10 0 6 9 10 20 10 11 0 20 5 20 10 0 6 11 10 25 10 14 0 25 5 25
10 0 6 9 10 20 10 11 0 20 7 20 15 0 8 9 15 20 15 11 0 20 5 20 10 0 6 11 10
25 10 14 0 25 5 25 10 0 6 9 10 20 10 11 0 20 5 20 10 0 6 11 10 25 10 14 0
25 5 25 10 0 6 9 10 20 10 11 0 20 5 20 10 0 6 9 10 20 10 11 0 20 7 20 15 0
9 9 15 23 15 12 0 29 9 37 20 8 11 22 20 32 20 10 0 18 5 18 10 0 6 9 10 20
10 11 0 20 5 20 10 0 6 9 10 21 10 22 0 49 22 49 39 0 6 9 11 20 11 11 0 20 5
20 10 0 6 11 10 25 10 14 0 25 5 25 10 0 6 8 10 18 10 10 0 24 9 32 20 8 11
25 20 37 20 13 0 23 5 23 11 0 16 26 39 44 39 9 0 16 5 16 10 0 6 9 10 20 10
11 0 20 5 20 10 0 6 7 10 15 10 8 0 15 5 15 10 0 6 7 10 16 10 18 0 44 23 44
39 0 6 10 11 23 11 12 0 29 9 37 20 8 11 21 20 30 20 9 0 22 9 30 20 8 11 23
20 33 20 20 0 47 22 47 39 0 6 7 11 16 11 9 0 29 14 44 30 15 16 36 30 45 30
19 0 45 23 45 39 0 6 9 11 20 11 11 0 20 5 20 10 0 6 6 10 13 10 7 0 19 9 27
20 8 11 20 20 28 20 15 0 62 45 62 60 0 5 7 10 15 10 8 0 15 5 15 10 0 6 7 10
16 10 8 0 33 18 54 40 21 22 48 40 59 40 12 0 21 5 21 10 0 17 68 80 85 80 16
0 45 22 45 35 0 10 69 75 80 75 5 0 10 5 10 10 0 6 9 10 19 10 11 0 22 6 25
13 5 9 7 9 12 0 3 -7 14 -13 25 -13 10 0 19 -4 19 -10 0 -5 5 -10 10 -10 6 0
26 -16 46 -35 19 -19 41 -35 49 -35 8 0 15 -4 15 -10 0 -5 9 -10 21 -10 26 0
40 -15 65 -67 12 -27 26 -43 37 -43 10 0 36 -18 57 -40 21 -22 46 -40 54 -40
9 0 16 -4 16 -10 0 -5 7 -10 15 -10 8 0 15 -5 15 -11 0 -14 25 -39 39 -39 6 0
11 -4 11 -10 0 -5 7 -10 15 -10 8 0 15 -4 15 -10 0 -5 5 -10 10 -10 6 0 20 -9
32 -20 12 -11 28 -20 35 -20 7 0 13 -5 13 -11 0 -16 26 -39 45 -39 9 0 30 -13
45 -30 15 -16 35 -30 44 -30 9 0 16 -7 16 -15 0 -8 9 -15 20 -15 11 0 20 -4
20 -10 0 -5 6 -10 13 -10 7 0 19 -9 27 -20 8 -11 22 -20 32 -20 10 0 18 -4 18
-10 0 -5 7 -10 15 -10 8 0 15 -4 15 -10 0 -5 9 -10 20 -10 11 0 20 -5 20 -11
0 -16 26 -39 44 -39 9 0 16 -4 16 -8 0 -4 16 -14 35 -21 19 -7 35 -17 35 -22
0 -5 7 -9 16 -9 18 0 44 -23 44 -39 0 -6 10 -11 23 -11 12 0 29 -9 37 -20 8
-11 22 -20 32 -20 10 0 18 -4 18 -10 0 -5 11 -10 25 -10 14 0 25 -4 25 -10 0
-5 9 -10 20 -10 11 0 20 -7 20 -15 0 -10 10 -15 29 -15 21 0 32 -6 36 -20 3
-11 15 -20 26 -20 10 0 19 -4 19 -10 0 -5 8 -10 18 -10 10 0 24 -9 32 -20 8
-11 25 -20 37 -20 14 0 23 -6 23 -15 0 -8 9 -15 20 -15 11 0 20 -4 20 -10 0
-5 11 -10 25 -10 14 0 25 -4 25 -10 0 -5 9 -10 20 -10 11 0 20 -4 20 -10 0 -5
9 -10 20 -10 11 0 20 -4 20 -10 0 -5 11 -10 25 -10 14 0 25 -4 25 -10 0 -5 9
-10 20 -10 11 0 20 -7 20 -15 0 -8 9 -15 20 -15 11 0 20 -4 20 -10 0 -5 11
-10 25 -10 14 0 25 -4 25 -10 0 -5 9 -10 20 -10 11 0 20 -4 20 -10 0 -5 16
-10 35 -10 19 0 35 -4 35 -10 0 -5 9 -10 20 -10 11 0 20 -7 20 -15 0 -8 9 -15
20 -15 11 0 20 -4 20 -10 0 -5 16 -10 35 -10 19 0 35 -4 35 -10 0 -5 9 -10 20
-10 11 0 20 -4 20 -10 0 -6 28 -10 63 -10 51 0 65 -4 77 -20 11 -15 26 -20 57
-20 24 0 43 5 43 10 0 6 16 10 35 10 19 0 35 5 35 10 0 6 9 10 20 10 11 0 20
5 20 10 0 6 7 10 16 10 22 0 44 25 44 49 0 12 6 21 14 21 8 0 20 14 28 30 7
17 16 30 20 30 5 0 8 23 8 50 0 47 -2 50 -25 50 -20 0 -25 5 -25 25 0 14 -4
25 -10 25 -5 0 -10 23 -10 51 0 52 -15 79 -45 79 -28 0 -45 27 -45 69 0 23 -4
41 -10 41 -5 0 -10 7 -10 15 0 8 -7 15 -15 15 -9 0 -27 11 -41 25 -14 14 -31
25 -39 25 -8 0 -19 8 -24 18 -10 16 -10 16 -11 0 0 -12 -8 -18 -25 -18 -18 0
-25 5 -25 19 0 28 -30 93 -49 108 -9 7 -24 13 -33 13 -10 0 -18 5 -18 10 0 6
-9 10 -19 10 -11 0 -22 6 -24 13 -4 9 -6 9 -6 0 -1 -18 -79 -17 -97 1 -8 8
-14 32 -14 54 0 41 -33 92 -60 92 -8 0 -27 7 -42 14 -16 8 -28 11 -28 5 0 -5
-13 -9 -30 -9 -16 0 -30 5 -30 10 0 6 -7 10 -15 10 -10 0 -15 10 -15 28 -1 87
-32 102 -209 102 -81 0 -131 4 -131 10 0 6 -7 10 -15 10 -12 0 -15 15 -15 78
0 42 -4 82 -8 87 -12 17 -52 36 -52 25 0 -16 -119 -12 -136 4 -9 9 -14 35 -14
69 0 52 -1 55 -34 71 -22 10 -61 16 -110 16 -61 0 -76 3 -76 15 0 8 -4 15 -10
15 -5 0 -10 25 -10 55 0 42 -3 55 -15 55 -8 0 -15 5 -15 10 0 6 -37 10 -91 10
-114 0 -123 7 -117 90 3 45 1 60 -9 60 -7 0 -13 5 -13 10 0 6 -5 10 -10 10
-16 0 -57 43 -64 68 -5 15 -16 22 -32 22 -13 0 -24 5 -24 11 0 6 -14 24 -30
39 -29 27 -42 80 -20 80 6 0 10 5 10 10 0 11 45 60 55 60 13 0 55 50 55 65 0
15 62 85 75 85 10 0 35 28 35 39 0 6 5 11 10 11 6 0 10 7 10 15 0 15 43 65 55
65 10 0 35 28 35 39 0 6 5 11 10 11 6 0 10 7 10 15 0 17 64 85 80 85 5 0 10 9
10 21 0 12 14 34 30 49 17 15 30 35 30 44 0 19 43 66 60 66 5 0 10 8 10 18 0
10 9 24 20 32 11 8 20 23 20 33 0 19 42 67 60 67 5 0 10 9 10 20 0 11 5 20 10
20 6 0 10 7 10 15 0 8 5 15 10 15 6 0 10 8 10 18 0 10 9 24 20 32 11 8 20 23
20 33 0 20 22 47 39 47 6 0 11 8 11 18 0 10 9 24 20 32 11 8 20 24 20 35 0 11
9 27 20 35 11 8 20 22 20 32 0 10 5 18 10 18 6 0 10 9 10 20 0 11 7 20 15 20
8 0 15 7 15 15 0 8 5 15 10 15 6 0 10 9 10 20 0 11 5 20 10 20 6 0 10 9 10 20
0 11 5 20 10 20 6 0 10 7 10 15 0 8 5 15 10 15 6 0 10 9 10 20 0 11 7 20 15
20 8 0 15 9 15 20 0 11 5 20 10 20 6 0 10 11 10 25 0 14 5 25 10 25 6 0 10 8
10 18 0 10 9 24 20 32 11 8 20 22 20 32 0 10 5 18 10 18 6 0 10 11 10 25 0 16
6 25 15 25 8 0 15 9 15 20 0 11 5 20 10 20 6 0 10 11 10 25 0 14 5 25 10 25 6
0 10 9 10 20 0 11 5 20 10 20 6 0 10 9 10 20 0 11 5 20 10 20 6 0 10 11 10 25
0 14 5 25 10 25 6 0 10 9 10 20 0 11 7 20 15 20 8 0 15 9 15 20 0 11 5 20 10
20 6 0 10 16 10 35 0 19 5 35 10 35 6 0 10 9 10 20 0 11 5 20 10 20 6 0 10 11
10 25 0 14 5 25 10 25 6 0 10 14 10 30 0 20 5 30 15 30 8 0 15 9 15 20 0 11 5
20 10 20 6 0 10 16 10 35 0 19 5 35 10 35 6 0 10 9 10 20 0 11 5 20 10 20 6 0
10 16 10 35 0 19 5 35 10 35 6 0 10 14 10 30 0 17 5 30 10 30 6 0 10 16 10 35
0 24 5 35 15 35 10 0 15 10 15 30 0 17 5 30 10 30 6 0 10 16 10 35 0 19 5 35
10 35 6 0 10 14 10 30 0 17 5 30 10 30 6 0 10 20 10 45 0 25 5 45 10 45 6 0
10 20 10 45 0 25 5 45 10 45 6 0 10 25 10 55 0 42 3 55 15 55 12 0 15 13 15
55 0 30 4 55 9 55 9 0 16 61 27 233 3 48 10 87 15 87 5 0 9 57 9 130 0 80 4
130 10 130 7 0 10 167 10 480 0 313 -3 480 -10 480 -6 0 -10 50 -10 130 0 73
-4 130 -9 130 -5 0 -12 37 -15 83 -12 174 -18 227 -27 227 -5 0 -9 29 -9 65 0
51 -3 65 -15 65 -12 0 -15 14 -15 65 0 37 -4 65 -10 65 -5 0 -10 20 -10 45 0
25 -4 45 -10 45 -5 0 -10 23 -10 50 0 28 -4 50 -8 50 -10 0 -32 103 -32 148 0
18 -4 32 -10 32 -5 0 -10 20 -10 45 0 33 -4 45 -15 45 -10 0 -15 10 -15 30 0
17 -4 30 -10 30 -5 0 -10 16 -10 35 0 19 -4 35 -9 35 -8 0 -14 23 -27 113 -4
20 -10 37 -15 37 -5 0 -9 14 -9 30 0 17 -4 30 -10 30 -5 0 -10 16 -10 35 0 24
-5 35 -15 35 -8 0 -15 9 -15 19 0 11 -4 21 -10 23 -5 2 -14 28 -20 58 -14 77
-33 140 -42 140 -4 0 -8 14 -8 30 0 20 -5 30 -15 30 -10 0 -15 11 -15 35 0 23
-5 35 -14 35 -8 0 -17 16 -21 38 -10 56 -29 112 -37 112 -5 0 -8 16 -8 35 0
19 -4 35 -10 35 -5 0 -10 9 -10 20 0 11 -7 20 -15 20 -8 0 -15 9 -15 20 0 11
-4 20 -8 20 -9 0 -52 119 -52 144 0 9 -4 16 -10 16 -5 0 -10 7 -10 15 0 15 -8
28 -41 63 -15 16 -34 71 -46 135 -3 15 -9 27 -14 27 -5 0 -9 9 -9 20 0 11 -4
20 -10 20 -5 0 -10 9 -10 20 0 11 -7 20 -15 20 -9 0 -15 9 -15 23 0 12 -9 29
-20 37 -11 8 -20 22 -20 32 0 10 -4 18 -10 18 -5 0 -10 11 -10 25 0 14 -4 25
-10 25 -5 0 -10 9 -10 20 0 11 -4 20 -10 20 -5 0 -10 9 -10 20 0 11 -7 20 -15
20 -9 0 -15 9 -15 25 0 14 -4 25 -10 25 -5 0 -10 8 -10 18 0 10 -9 24 -20 32
-11 8 -20 22 -20 32 0 10 -4 18 -10 18 -5 0 -10 5 -10 11 0 6 -6 17 -12 24
-32 35 -38 45 -38 60 0 8 -4 15 -10 15 -5 0 -10 10 -10 21 0 12 -8 29 -18 38
-23 21 -52 67 -52 83 0 8 -9 20 -20 28 -11 8 -20 22 -20 32 0 10 -4 18 -8 18
-5 0 -15 11 -22 25 -7 14 -19 25 -27 25 -7 0 -13 9 -13 20 0 11 -4 20 -10 20
-5 0 -10 9 -10 20 0 11 -4 20 -9 20 -5 0 -15 16 -21 35 -6 19 -16 35 -21 35
-17 0 -35 23 -43 53 -3 15 -11 27 -16 27 -6 0 -10 11 -10 25 0 14 -5 25 -10
25 -14 0 -60 46 -60 60 0 5 -5 10 -11 10 -5 0 -15 14 -20 30 -6 17 -17 30 -25
30 -8 0 -14 8 -14 18 0 10 -9 24 -20 32 -11 8 -20 20 -20 27 0 7 -4 13 -9 13
-5 0 -12 8 -16 19 -6 21 -39 61 -49 61 -13 0 -36 28 -36 45 0 17 -83 105 -100
105 -5 0 -10 10 -10 21 0 12 -10 30 -22 40 l-21 19 21 19 c12 10 22 23 22 30
0 6 5 11 10 11 14 0 120 106 120 120 0 5 9 10 21 10 11 0 42 22 69 50 27 28
53 50 59 50 6 0 11 5 11 11 0 15 26 39 42 39 8 0 20 9 28 20 8 11 18 20 23 20
10 0 37 26 37 35 0 12 50 55 65 55 8 0 15 5 15 10 0 6 5 10 10 10 14 0 60 46
60 60 0 5 8 10 18 10 10 0 24 9 32 20 8 11 18 20 23 20 5 0 22 14 37 30 15 17
35 30 44 30 9 0 16 7 16 15 0 8 6 15 13 15 7 0 19 9 27 20 8 11 20 20 28 20
15 0 62 45 62 60 0 5 9 10 20 10 12 0 36 15 55 34 19 19 44 38 57 41 26 9 48
29 48 44 0 6 8 11 18 11 10 0 24 9 32 20 8 11 23 20 33 20 11 0 32 14 47 30
15 17 35 30 44 30 9 0 16 7 16 15 0 9 9 15 21 15 12 0 34 14 49 30 15 17 35
30 44 30 9 0 16 5 16 10 0 6 11 10 25 10 14 0 25 5 25 11 0 16 26 39 44 39 9
0 16 5 16 10 0 6 7 10 15 10 8 0 15 5 15 10 0 6 9 10 20 10 11 0 20 5 20 10 0
6 7 10 16 10 18 0 44 23 44 39 0 6 10 11 23 11 12 0 29 9 37 20 8 11 22 20 32
20 10 0 18 5 18 10 0 6 10 10 23 10 12 0 29 9 37 20 8 12 26 20 42 20 18 0 28
5 28 15 0 8 7 15 15 15 8 0 15 5 15 10 0 6 9 10 20 10 11 0 20 5 20 10 0 6 9
10 20 10 11 0 20 5 20 10 0 6 9 10 21 10 22 0 49 22 49 39 0 6 13 11 28 11 16
0 34 8 42 20 8 11 20 20 27 20 7 0 13 5 13 10 0 6 14 10 30 10 17 0 30 5 30
10 0 6 9 10 21 10 22 0 49 22 49 39 0 6 13 11 28 11 16 0 34 8 42 20 8 11 24
20 35 20 11 0 27 9 35 20 8 12 26 20 42 20 15 0 28 5 28 10 0 6 7 10 15 10 8
0 15 6 15 13 0 7 9 19 20 27 12 8 20 26 20 42 0 15 4 28 8 28 10 0 8 78 -3
128 -4 17 -13 32 -20 32 -7 0 -16 6 -19 13 -5 10 -7 10 -12 0 -7 -15 -84 -18
-84 -3 0 6 -87 10 -241 10 -273 0 -269 1 -269 -75 0 -71 -9 -75 -154 -75 -77
0 -126 -4 -126 -10 0 -5 -11 -10 -25 -10 -18 0 -25 -5 -25 -20 0 -11 -4 -20
-10 -20 -5 0 -10 -23 -10 -51 0 -77 -4 -79 -179 -79 -128 0 -151 -2 -151 -15
0 -8 -4 -15 -10 -15 -5 0 -10 -22 -10 -50 0 -27 -4 -50 -10 -50 -5 0 -10 -7
-10 -15 0 -12 -17 -15 -95 -15 -57 0 -95 -4 -95 -10 0 -5 -7 -10 -15 -10 -12
0 -15 -13 -15 -61 0 -83 -8 -89 -119 -89 -54 0 -91 -4 -91 -10 0 -5 -7 -10
-15 -10 -11 0 -15 -12 -15 -51 0 -57 -15 -79 -54 -79 -16 0 -26 -6 -26 -15 0
-12 -17 -15 -96 -15 -112 0 -124 -7 -124 -75 0 -59 -16 -75 -75 -75 -65 0 -75
-14 -75 -99 l0 -71 -45 0 c-25 0 -45 -4 -45 -10 0 -6 -35 -10 -85 -10 -69 0
-85 -3 -85 -15 0 -8 -5 -15 -11 -15 -21 0 -39 -29 -39 -64 0 -20 -4 -36 -10
-36 -5 0 -10 -7 -10 -15 0 -11 -11 -15 -41 -15 -55 0 -69 -17 -69 -85 0 -80
-8 -85 -130 -85 -120 0 -130 -6 -130 -79 l0 -51 -45 0 -45 0 0 50 c0 41 -3 50
-17 50 -10 0 -27 7 -37 15 -12 9 -42 15 -78 15 -32 0 -58 4 -58 10 0 6 -7 10
-15 10 -23 0 -20 67 3 73 16 4 16 5 0 6 -10 0 -18 7 -18 14 0 18 -34 57 -49
57 -6 0 -11 4 -11 8 0 5 -16 16 -35 25 -23 11 -35 24 -35 37 0 11 -4 20 -9 20
-5 0 -13 9 -16 20 -3 11 -15 20 -26 20 -10 0 -19 4 -19 10 0 5 -12 13 -27 16
-16 4 -34 11 -40 17 -9 6 -13 6 -13 -2 0 -18 -35 -12 -50 9 -8 11 -20 20 -27
20 -7 0 -13 5 -13 10 0 6 7 10 16 10 11 0 14 5 10 16 -3 9 -6 18 -6 20 0 2 -5
4 -11 4 -5 0 -30 20 -55 45 -24 25 -53 45 -64 45 -11 0 -20 5 -20 10 0 6 -13
10 -30 10 -23 0 -30 4 -30 20 0 11 -4 20 -10 20 -5 0 -12 11 -16 25 -3 14 -11
25 -18 25 -6 0 -18 9 -26 20 -9 13 -26 20 -46 20 -19 0 -34 6 -38 15 -3 8 -10
15 -16 15 -5 0 -10 -7 -10 -15 0 -8 -9 -15 -20 -15 -11 0 -20 7 -20 15 0 8 -8
15 -19 15 -14 0 -20 10 -25 48 -5 43 -10 49 -44 65 -20 9 -53 27 -72 38 -22
13 -36 17 -38 10 -6 -17 -140 -14 -158 3 -9 9 -14 35 -14 69 0 74 -6 87 -42
87 -16 0 -37 8 -46 17 -16 16 -17 16 -20 0 -5 -23 -92 -25 -92 -2 0 8 -4 15
-10 15 -5 0 -10 23 -10 50 0 43 -3 50 -20 50 -11 0 -20 4 -20 8 0 5 -25 16
-55 24 -30 8 -55 11 -55 7 0 -5 -43 -9 -96 -9 -117 0 -124 5 -124 89 0 78 -20
101 -84 101 -26 0 -47 5 -50 13 -5 10 -7 10 -12 0 -7 -16 -154 -18 -154 -3 0
6 -7 10 -15 10 -12 0 -15 13 -15 55 l0 55 -35 0 c-19 0 -35 5 -35 10 0 6 -27
10 -60 10 -33 0 -60 4 -60 10 0 6 -4 10 -10 10 -5 0 -10 -4 -10 -10z m2490
-2630 c0 -13 45 -60 57 -60 5 0 15 -10 23 -21 8 -12 20 -27 26 -33 6 -7 15
-22 18 -34 4 -12 12 -22 17 -22 5 0 9 -9 9 -20 0 -11 6 -20 13 -20 7 0 19 -9
27 -20 8 -11 20 -20 27 -20 7 0 13 -9 13 -21 0 -11 7 -27 15 -35 8 -9 15 -24
15 -35 0 -10 5 -19 10 -19 6 0 10 -7 10 -15 0 -8 7 -15 15 -15 8 0 15 -9 15
-20 0 -11 5 -20 11 -20 18 0 36 -24 44 -58 3 -18 11 -32 16 -32 5 0 9 -7 9
-16 0 -17 23 -44 37 -44 5 0 15 -10 23 -21 8 -12 20 -27 26 -33 6 -6 14 -29
18 -50 8 -43 26 -66 50 -66 10 0 16 -9 16 -25 0 -14 4 -25 9 -25 5 0 12 -17
16 -39 3 -21 15 -48 26 -59 10 -12 19 -28 19 -37 0 -8 7 -15 16 -15 18 0 44
-23 44 -40 0 -6 7 -33 16 -61 15 -46 18 -49 51 -49 19 0 41 -6 49 -14 16 -16
19 -76 4 -76 -5 0 -10 -9 -10 -20 0 -11 5 -20 10 -20 6 0 10 -9 10 -20 0 -10
5 -31 12 -45 9 -19 19 -25 45 -25 l33 0 0 -65 c0 -36 4 -65 9 -65 5 0 11 -12
14 -27 11 -59 31 -119 44 -131 7 -7 13 -20 13 -28 0 -8 5 -14 10 -14 6 0 10
-9 10 -19 0 -11 6 -26 14 -33 7 -8 17 -33 21 -56 7 -42 7 -42 51 -42 24 0 44
-4 44 -10 0 -5 7 -10 15 -10 12 0 15 -16 15 -85 0 -69 -3 -85 -15 -85 -8 0
-15 -6 -15 -14 0 -8 7 -21 15 -30 8 -8 15 -23 15 -33 0 -48 12 -63 46 -63 19
0 34 -4 34 -10 0 -5 7 -10 15 -10 12 0 15 -14 15 -65 0 -51 -3 -65 -15 -65
-19 0 -20 -34 -1 -52 7 -8 17 -42 21 -76 l7 -62 44 0 c32 0 44 -4 44 -15 0 -8
7 -15 15 -15 12 0 15 -18 15 -105 0 -87 -3 -105 -15 -105 -8 0 -15 -6 -15 -14
0 -8 7 -21 15 -30 8 -8 15 -26 15 -40 0 -17 6 -26 16 -26 31 0 44 -27 44 -94
0 -37 4 -66 10 -66 6 0 10 -18 10 -40 0 -23 -5 -40 -11 -40 -7 0 -9 -11 -5
-32 4 -18 11 -75 16 -127 10 -91 18 -120 27 -93 10 28 83 5 83 -27 0 -6 5 -11
10 -11 7 0 10 -152 10 -435 0 -380 2 -435 15 -435 12 0 15 -15 15 -75 0 -43 4
-75 10 -75 6 0 10 -20 10 -45 0 -25 -4 -45 -10 -45 -6 0 -10 -38 -10 -95 0
-78 -3 -95 -15 -95 -13 0 -15 -52 -15 -411 0 -432 -1 -439 -44 -439 -9 0 -16
-4 -16 -10 0 -5 -9 -10 -20 -10 -18 0 -20 -7 -20 -70 0 -56 -3 -70 -15 -70
-12 0 -15 -16 -15 -81 0 -80 -11 -109 -40 -109 -34 0 -40 -27 -40 -189 0 -136
-2 -161 -15 -161 -8 0 -15 -4 -15 -10 0 -5 -16 -10 -36 -10 -59 0 -64 -12 -64
-159 0 -110 -2 -131 -15 -131 -8 0 -15 -9 -15 -20 0 -15 -7 -20 -26 -20 -39 0
-54 -22 -54 -79 0 -39 -4 -51 -15 -51 -8 0 -15 -4 -15 -10 0 -5 -16 -10 -36
-10 -51 0 -64 -18 -64 -89 0 -48 -3 -61 -15 -61 -8 0 -15 -7 -15 -15 0 -8 -7
-15 -16 -15 -32 0 -44 -27 -44 -95 0 -78 -12 -95 -65 -95 -49 0 -65 -19 -65
-75 0 -54 -16 -75 -59 -75 -21 0 -31 -5 -31 -15 0 -8 -4 -15 -10 -15 -6 0 -10
-27 -10 -61 0 -71 -13 -89 -65 -89 -49 0 -65 -19 -65 -75 0 -48 -16 -75 -45
-75 -33 0 -45 -26 -45 -100 0 -83 -11 -100 -65 -100 -49 0 -65 -19 -65 -75 0
-53 -16 -75 -55 -75 -41 0 -55 -22 -55 -85 0 -84 -3 -85 -174 -85 -91 0 -146
4 -146 10 0 6 -7 10 -15 10 -12 0 -15 15 -15 75 l0 75 -40 0 c-22 0 -40 5 -40
10 0 6 -7 10 -15 10 -11 0 -15 11 -15 40 0 65 -17 90 -62 90 -21 0 -38 5 -38
10 0 6 -7 10 -15 10 -12 0 -15 13 -15 59 0 51 -4 63 -29 90 -16 17 -34 31 -40
31 -6 0 -11 7 -11 15 0 9 -6 18 -14 21 -8 3 -17 16 -20 30 -4 13 -11 24 -16
24 -6 0 -10 7 -10 16 0 15 -23 44 -35 44 -12 0 -35 29 -35 43 0 26 -12 47 -26
47 -8 0 -14 8 -14 18 0 10 -16 35 -35 56 -20 22 -38 49 -41 62 -4 13 -12 24
-20 24 -8 0 -14 7 -14 15 0 9 -15 31 -32 50 -51 53 -58 63 -58 83 0 17 -8 30
-50 79 -5 7 -10 19 -10 28 0 8 -7 15 -15 15 -8 0 -15 7 -15 15 0 8 -4 15 -9
15 -5 0 -12 16 -16 36 -8 44 -25 74 -42 74 -7 0 -13 9 -13 20 0 11 -6 20 -13
20 -14 0 -37 40 -37 65 0 25 -33 85 -47 85 -7 0 -13 11 -13 25 0 14 -4 25 -10
25 -5 0 -10 9 -10 20 0 11 -4 20 -10 20 -5 0 -10 11 -10 25 0 14 -4 25 -10 25
-5 0 -10 9 -10 20 0 11 -4 20 -10 20 -5 0 -10 9 -10 20 0 11 -4 20 -10 20 -5
0 -10 11 -10 25 0 16 -6 25 -15 25 -8 0 -15 9 -15 20 0 11 -4 20 -8 20 -12 0
-40 66 -48 113 -3 20 -10 37 -15 37 -5 0 -9 13 -9 29 0 17 -4 33 -10 36 -5 3
-10 15 -10 26 0 10 -7 19 -15 19 -10 0 -15 11 -15 35 0 19 -4 35 -10 35 -5 0
-10 9 -10 20 0 11 -4 20 -10 20 -5 0 -10 14 -10 30 0 17 -4 30 -10 30 -5 0
-10 16 -10 35 0 19 -4 35 -10 35 -5 0 -10 16 -10 35 0 24 -5 35 -15 35 -10 0
-15 10 -15 30 0 17 -4 30 -10 30 -5 0 -10 20 -10 45 0 25 -4 45 -10 45 -5 0
-10 18 -10 40 0 22 -4 40 -9 40 -9 0 -15 38 -27 163 -3 31 -10 57 -15 57 -5 0
-9 34 -9 75 0 60 -3 75 -15 75 -12 0 -15 20 -15 120 0 73 -4 120 -10 120 -6 0
-10 77 -10 210 0 133 -4 210 -10 210 -6 0 -10 43 -10 110 0 67 4 110 10 110 6
0 10 75 10 205 0 130 4 205 10 205 6 0 10 43 10 110 0 91 3 110 15 110 12 0
15 15 15 75 0 43 4 75 10 75 6 0 10 28 10 65 0 37 4 65 10 65 6 0 10 25 10 55
0 30 5 55 10 55 6 0 10 25 10 55 0 30 5 55 10 55 6 0 10 18 10 40 0 22 5 40
10 40 6 0 10 25 10 55 0 42 3 55 15 55 11 0 15 12 15 45 0 25 5 45 10 45 6 0
10 16 10 35 0 19 5 35 10 35 6 0 10 18 10 40 0 22 5 40 10 40 6 0 10 16 10 35
0 19 5 35 10 35 6 0 10 14 10 30 0 20 5 30 15 30 10 0 15 11 15 35 0 19 5 35
10 35 6 0 10 20 10 45 0 25 5 45 10 45 6 0 10 9 10 20 0 11 5 20 10 20 6 0 10
14 10 30 0 17 5 30 10 30 6 0 10 16 10 35 0 19 5 35 10 35 6 0 10 14 10 30 0
20 5 30 15 30 10 0 15 11 15 35 0 19 5 35 10 35 6 0 10 9 10 20 0 11 5 20 10
20 6 0 10 16 10 35 0 19 5 35 10 35 6 0 10 9 10 20 0 11 5 20 10 20 6 0 10 16
10 35 0 19 5 35 10 35 6 0 10 9 10 20 0 11 7 20 15 20 10 0 15 11 15 35 0 19
5 35 10 35 6 0 10 9 10 20 0 11 5 20 10 20 6 0 10 9 10 20 0 11 5 20 10 20 6
0 10 16 10 35 0 19 5 35 10 35 6 0 10 9 10 20 0 11 7 20 15 20 9 0 15 9 15 25
0 14 5 25 10 25 6 0 10 9 10 20 0 11 5 20 10 20 6 0 10 9 10 20 0 11 5 20 10
20 6 0 10 11 10 25 0 14 5 25 10 25 6 0 10 9 10 20 0 11 5 20 10 20 6 0 10 9
10 20 0 11 7 20 15 20 9 0 15 9 15 25 0 14 5 25 10 25 6 0 10 9 10 20 0 11 5
20 10 20 6 0 10 9 10 20 0 11 5 20 10 20 6 0 10 11 10 25 0 14 5 25 10 25 6 0
10 9 10 20 0 11 5 20 10 20 6 0 10 9 10 20 0 11 7 20 15 20 9 0 15 9 15 23 0
12 9 29 20 37 11 8 20 22 20 32 0 10 5 18 10 18 6 0 10 11 10 25 0 14 5 25 10
25 6 0 10 9 10 20 0 11 5 20 11 20 17 0 39 27 39 49 0 12 5 21 10 21 6 0 10 8
10 18 0 10 9 24 20 32 11 8 20 22 20 32 0 10 5 18 10 18 6 0 10 11 10 25 0 14
5 25 11 25 16 0 39 26 39 44 0 9 5 16 10 16 6 0 10 7 10 15 0 8 5 15 10 15 6
0 10 8 10 18 0 10 9 24 20 32 11 8 20 22 20 32 0 10 7 18 15 18 8 0 15 7 15
15 0 8 5 15 10 15 6 0 10 7 10 16 0 9 14 29 30 44 17 15 30 37 30 49 0 12 5
21 10 21 17 0 60 47 60 65 0 8 5 15 10 15 6 0 10 6 10 13 0 7 9 19 20 27 11 8
20 22 20 32 0 10 5 18 10 18 14 0 60 46 60 60 0 5 5 10 10 10 6 0 10 -5 10
-10z"/>
</g>
</svg>
